<?xml version="1.0" standalone="no"?>
<!DOCTYPE svg PUBLIC "-//W3C//DTD SVG 20010904//EN"
 "http://www.w3.org/TR/2001/REC-SVG-20010904/DTD/svg10.dtd">
<svg version="1.0" xmlns="http://www.w3.org/2000/svg"
 width="190.000000pt" height="190.000000pt" viewBox="0 0 190.000000 190.000000"
 preserveAspectRatio="xMidYMid meet">
<metadata>
Created by potrace 1.11, written by Peter Selinger 2001-2013
</metadata>
<g transform="translate(0.000000,190.000000) scale(0.100000,-0.100000)"
fill="#000000" stroke="none">
<path d="M807 1600 c-238 -40 -480 -194 -557 -355 -56 -118 -43 -152 29 -77
73 75 157 127 295 182 122 48 192 61 334 60 296 -1 426 -38 599 -171 103 -79
133 -85 133 -25 0 63 -97 175 -220 254 -127 81 -298 133 -455 137 -60 1 -132
-1 -158 -5z"/>
<path d="M24 1046 c-12 -9 -14 -41 -12 -186 l3 -175 85 -2 c133 -3 177 19 187
95 4 33 1 44 -26 74 -30 35 -30 35 -11 53 49 44 10 129 -63 140 -78 11 -148
12 -163 1z m187 -57 c16 -26 10 -68 -11 -79 -24 -13 -111 -17 -128 -6 -13 8
-17 88 -4 100 13 14 133 1 143 -15z m15 -164 c31 -42 -1 -94 -58 -96 -114 -4
-108 -8 -108 60 0 58 1 60 28 63 52 6 124 -8 138 -27z"/>
<path d="M835 1050 l-30 -5 -2 -165 c-1 -91 1 -173 3 -182 5 -15 18 -18 83
-18 103 0 136 7 165 36 41 41 38 111 -4 144 -20 15 -20 15 1 57 18 38 19 44 6
76 -11 25 -24 38 -49 45 -40 13 -132 19 -173 12z m154 -53 c29 -14 34 -51 12
-78 -12 -15 -29 -20 -73 -20 -31 -1 -61 2 -67 6 -12 7 -15 63 -5 89 8 20 97
22 133 3z m25 -166 c21 -17 21 -65 0 -85 -8 -9 -31 -17 -50 -17 -19 -1 -44 -2
-56 -3 -47 -4 -59 11 -56 67 3 45 6 52 28 57 34 8 115 -4 134 -19z"/>
<path d="M1840 1048 c-14 -5 -62 -46 -107 -91 -46 -45 -84 -77 -84 -72 -1 6
-3 39 -4 75 -3 94 -3 92 -27 88 -23 -3 -23 -4 -23 -176 0 -130 3 -176 13 -184
22 -18 35 7 37 67 2 43 7 61 25 80 13 14 27 25 32 25 4 0 29 -30 56 -67 26
-37 57 -78 69 -90 22 -23 63 -31 63 -13 0 6 -31 53 -70 105 -38 52 -70 99 -70
104 0 5 30 39 67 75 68 66 77 95 23 74z"/>
<path d="M500 1028 c-54 -123 -128 -334 -119 -343 15 -15 40 6 58 52 9 23 19
44 23 48 10 10 120 12 140 3 9 -5 26 -29 37 -53 20 -46 45 -65 61 -49 8 8
-107 309 -134 353 -13 20 -56 13 -66 -11z m86 -185 c-6 -15 -101 -13 -101 3 0
6 11 45 25 87 l25 76 28 -76 c15 -42 26 -82 23 -90z"/>
<path d="M1292 1023 c-6 -16 -36 -93 -66 -172 -59 -151 -64 -171 -43 -171 22
0 34 14 52 63 19 50 14 47 100 51 59 2 77 -8 95 -54 20 -50 43 -71 60 -54 9 9
-6 56 -55 175 -37 90 -71 170 -77 177 -19 22 -55 14 -66 -15z m72 -110 c14
-40 22 -74 18 -74 -44 -7 -71 -8 -89 -4 l-21 5 26 79 c15 44 30 76 33 73 4 -4
19 -40 33 -79z"/>
<path d="M780 584 c0 -8 51 -94 56 -94 4 0 -8 31 -28 72 -12 25 -28 38 -28 22z"/>
<path d="M1048 535 c-15 -30 -25 -55 -24 -55 2 0 20 25 40 55 21 32 31 55 23
55 -7 0 -24 -25 -39 -55z"/>
<path d="M903 509 c-6 -6 -9 -18 -6 -26 7 -19 -16 -63 -34 -63 -7 0 -13 5 -13
10 0 6 5 10 12 10 9 0 9 3 1 11 -18 18 -33 1 -33 -36 0 -35 20 -51 38 -33 8 8
13 6 18 -8 23 -63 35 -83 55 -89 28 -9 49 16 49 61 0 24 5 33 21 37 17 5 20
12 17 44 -2 21 -7 37 -13 35 -5 -2 -9 -10 -7 -18 2 -8 1 -14 -2 -14 -13 0 -56
24 -56 32 0 24 -16 58 -28 58 -5 0 -13 -5 -19 -11z"/>
</g>
</svg>
